<?xml version="1.0" encoding="UTF-8" standalone="no"?> <svg id="Layer_1" data-name="Layer 1" xmlns="http://www.w3.org/2000/svg" viewBox="0 0 512 512"><title>Favourite</title><path d="M489.62,201.51A21.34,21.34,0,0,0,472.4,187L336.09,167.18l-61-123.51a21.33,21.33,0,0,0-38.26,0l-61,123.51L39.6,187a21.33,21.33,0,0,0-11.82,36.39l98.63,96.15L103.13,455.29a21.32,21.32,0,0,0,31,22.48L256,413.68l121.92,64.09a21.32,21.32,0,0,0,30.95-22.48L385.59,319.53l98.63-96.15A21.33,21.33,0,0,0,489.62,201.51ZM347.78,296.8a21.32,21.32,0,0,0-6.14,18.88l17.87,104.21-93.58-49.2a21.35,21.35,0,0,0-19.86,0l-93.58,49.2,17.87-104.21a21.32,21.32,0,0,0-6.14-18.88L88.51,223l104.63-15.2a21.36,21.36,0,0,0,16.07-11.67L256,101.31l46.79,94.82a21.36,21.36,0,0,0,16.07,11.67L423.49,223Z"/></svg>