<?xml version="1.0" encoding="utf-8"?>
<!-- Generator: Adobe Illustrator 26.0.2, SVG Export Plug-In . SVG Version: 6.00 Build 0)  -->
<svg version="1.1" id="Layer_1" xmlns="http://www.w3.org/2000/svg" xmlns:xlink="http://www.w3.org/1999/xlink" x="0px" y="0px"
	 viewBox="0 0 108.33 140.33" style="enable-background:new 0 0 108.33 140.33;" xml:space="preserve">
<style type="text/css">
	.st0{fill:#F8F8F8;}
	.st1{fill:#FFFFFF;stroke:#B5B5B5;stroke-width:2;stroke-miterlimit:10;}
	.st2{fill:none;stroke:#B5B5B5;stroke-width:2;stroke-linejoin:round;}
	.st3{fill:#B5B5B5;}
</style>
<path class="st0" d="M101.91,138.92H6.42c-2.76,0-5.01-2.24-5.01-5.01V6.42c0-2.76,2.24-5.01,5.01-5.01h95.49
	c2.76,0,5.01,2.24,5.01,5.01v127.49C106.92,136.68,104.68,138.92,101.91,138.92z"/>
<g>
	<g id="Group_1057_00000048499935318296557670000016627209260865639335_" transform="translate(25.093 0)">
		<g id="Group_1050_00000007389446062210748550000011774349391908235179_" transform="translate(0 0)">
			<path id="Rectangle_74_00000107549924995644386200000004101119397421987003_" class="st1" d="M19.8,43.78h18.66c1.1,0,2,0.9,2,2
				v19.47c0,1.1-0.9,2-2,2H19.8c-1.1,0-2-0.9-2-2V45.78C17.8,44.68,18.69,43.78,19.8,43.78z"/>
			<path id="Path_39_00000079476919029697859130000010768657421950668703_" class="st2" d="M17.69,61.39l6.76-6.8l7.56,7.6l4.2-4.23
				l4.26,4.29"/>
			<circle id="Ellipse_54_00000052807332841109610740000013233755465191132815_" class="st1" cx="32.32" cy="52.04" r="3.61"/>
		</g>
	</g>
	<g>
		<path class="st3" d="M28.54,84.9v-8.88h1.38l3.58,6.76v-6.76h0.87v8.88h-0.74l-4.22-8.02v8.02C29.41,84.9,28.54,84.9,28.54,84.9z"
			/>
		<path class="st3" d="M36.4,83.02c-0.18-0.39-0.31-0.79-0.39-1.22s-0.12-0.86-0.12-1.31s0.04-0.89,0.11-1.31s0.2-0.84,0.36-1.24
			s0.38-0.75,0.62-1.04s0.56-0.53,0.93-0.71s0.79-0.27,1.24-0.27s0.86,0.09,1.22,0.27s0.66,0.42,0.9,0.72s0.44,0.65,0.61,1.05
			c0.31,0.75,0.46,1.59,0.46,2.53c0,1.71-0.44,2.99-1.33,3.82c-0.48,0.45-1.1,0.68-1.85,0.68c-0.43,0-0.83-0.09-1.2-0.26
			s-0.68-0.41-0.93-0.7S36.58,83.41,36.4,83.02z M37.09,78.28c-0.12,0.33-0.2,0.68-0.25,1.05s-0.08,0.78-0.08,1.25
			s0.05,0.92,0.14,1.36s0.23,0.84,0.42,1.19s0.44,0.64,0.76,0.84s0.67,0.31,1.05,0.31s0.71-0.08,0.99-0.23s0.5-0.35,0.67-0.6
			s0.31-0.54,0.42-0.88c0.2-0.6,0.29-1.29,0.29-2.06c0-1.29-0.24-2.28-0.71-2.99c-0.17-0.25-0.39-0.46-0.66-0.62
			s-0.59-0.24-0.94-0.24s-0.67,0.07-0.95,0.21s-0.51,0.33-0.69,0.57S37.2,77.95,37.09,78.28z"/>
		<path class="st3" d="M47.21,84.9v-8.88h0.87v8.88H47.21z"/>
		<path class="st3" d="M49.92,84.9v-8.88h1.57l1.9,6.81h0.06l1.9-6.81h1.57v8.88h-0.87v-8.05h-0.06l-2.24,8.05h-0.67l-2.24-8.05
			h-0.06v8.05H49.92z"/>
		<path class="st3" d="M58.15,84.9l2.53-8.88h1.27l2.53,8.88h-0.9l-0.76-2.8h-2.98l-0.78,2.8H58.15z M60.03,81.37h2.58l-1.29-4.61
			L60.03,81.37z"/>
		<path class="st3" d="M65.86,82.96c-0.17-0.4-0.29-0.81-0.36-1.24s-0.11-0.84-0.11-1.26s0.03-0.8,0.08-1.15s0.14-0.7,0.25-1.04
			s0.25-0.65,0.44-0.93s0.39-0.53,0.62-0.75c0.5-0.45,1.12-0.68,1.88-0.68c0.55,0,1.07,0.17,1.55,0.5c0.57,0.39,0.98,1.07,1.24,2.04
			l-0.85,0.21c0-0.03-0.01-0.07-0.01-0.11s-0.03-0.14-0.06-0.28s-0.08-0.27-0.13-0.4s-0.13-0.27-0.23-0.42s-0.22-0.29-0.35-0.4
			c-0.3-0.27-0.67-0.4-1.12-0.4s-0.84,0.11-1.16,0.32s-0.57,0.5-0.74,0.87c-0.34,0.7-0.51,1.56-0.51,2.57c0,1.2,0.16,2.1,0.47,2.7
			c0.41,0.78,1.06,1.17,1.94,1.17c1.1,0,1.73-0.63,1.9-1.9c0.04-0.27,0.05-0.58,0.05-0.93h-1.97v-0.73h2.82v4.19h-0.7v-1.12
			c-0.44,0.61-0.91,0.98-1.4,1.12C69.18,84.97,68.89,85,68.53,85s-0.73-0.09-1.1-0.27s-0.68-0.42-0.93-0.71S66.03,83.37,65.86,82.96
			z"/>
		<path class="st3" d="M73.32,84.9v-8.88h4.81v0.73h-3.94v3.12h2.83v0.73h-2.83v3.52h4.17v0.78C78.36,84.9,73.32,84.9,73.32,84.9z"
			/>
	</g>
	<g>
		<path class="st3" d="M26.13,97.9l2.53-8.88h1.27l2.53,8.88h-0.9l-0.76-2.8h-2.98l-0.78,2.8H26.13z M28.01,94.37h2.58l-1.29-4.61
			L28.01,94.37z"/>
		<path class="st3" d="M33.05,89.02h0.9l2.19,7.36l2.19-7.36h0.9l-2.64,8.88h-0.9L33.05,89.02z"/>
		<path class="st3" d="M39.82,97.9l2.53-8.88h1.27l2.53,8.88h-0.9l-0.76-2.8H41.5l-0.78,2.8H39.82z M41.7,94.37h2.58l-1.29-4.61
			L41.7,94.37z"/>
		<path class="st3" d="M47.39,97.9v-8.88h0.87v8.88H47.39z"/>
		<path class="st3" d="M50.14,97.9v-8.88H51v8.04h3.94v0.83L50.14,97.9L50.14,97.9z"/>
		<path class="st3" d="M55.53,97.9l2.53-8.88h1.27l2.53,8.88h-0.9l-0.76-2.8h-2.98l-0.78,2.8H55.53z M57.41,94.37h2.58l-1.29-4.61
			L57.41,94.37z"/>
		<path class="st3" d="M63.1,97.9v-8.88h2.77c0.71,0,1.3,0.2,1.77,0.61s0.7,0.91,0.7,1.51c0,1-0.35,1.63-1.04,1.91
			c-0.12,0.05-0.27,0.1-0.45,0.15c0.64,0.16,1.12,0.55,1.44,1.15c0.17,0.33,0.26,0.71,0.26,1.13c0,0.73-0.23,1.31-0.69,1.75
			s-1.12,0.65-1.99,0.65H63.1V97.9z M63.97,92.9h1.9c0.55,0,0.96-0.14,1.24-0.42c0.12-0.11,0.22-0.29,0.31-0.52s0.13-0.5,0.13-0.82
			c0-0.46-0.14-0.8-0.43-1.04s-0.7-0.36-1.25-0.36h-1.9C63.97,89.74,63.97,92.9,63.97,92.9z M63.97,97.17h1.9
			c0.64,0,1.1-0.13,1.39-0.4c0.12-0.11,0.23-0.28,0.32-0.5s0.13-0.48,0.13-0.78c0-0.55-0.17-1-0.51-1.34s-0.79-0.51-1.34-0.51h-1.9
			v3.53H63.97z"/>
		<path class="st3" d="M70.03,97.9v-8.88h0.87v8.04h3.94v0.83L70.03,97.9L70.03,97.9z"/>
		<path class="st3" d="M76.07,97.9v-8.88h4.81v0.73h-3.94v3.12h2.83v0.73h-2.83v3.52h4.17v0.78C81.11,97.9,76.07,97.9,76.07,97.9z"
			/>
	</g>
</g>
</svg>
